<svg xmlns="http://www.w3.org/2000/svg" viewBox="0 0 14 14">
<path fill="#fff" d="m10.427 10.031 2.405-0.479-6.025-3.754-0.142 0.099 1.341 6.969 1.309-2.072 1.27 1.85c0.241 0.348 0.684 0.461 0.991 0.25 0.305-0.211 0.36-0.665 0.121-1.014l-1.27-1.849z m-3.5 1.779c-0.966 0-1.867-0.277-2.635-0.75 0.691 0.007-0.514-1.052 0.316-1.214 0.537-0.082 0.904-1.079 0.625-1.064-0.279 0.015-0.809-0.143-1.182-0.611-0.374-0.471-0.701-0.363-1.086-0.289-0.337 0.066-0.752 1-0.855 1.256-0.262-0.502-0.44-1.054-0.52-1.637 0.428-0.224 1.126-0.6 1.378-0.808 0.372-0.308-0.124-0.433-0.185-0.618 0-0.43 0.866-0.43 1.172-0.866 0.394-0.656 1.458-1.05 2.614-1.05 0.306 0 0.605 0.032 0.897 0.084 0.683 0.637 0.861 1.369 1.205 1.56 0.558 0.708 1.233 1.388 1.482 1.511 0.248 0.124 0.555 1.176 0.495 1.608-0.043 0.305-0.422 0.641-0.577 0.965l2.574 1.604c0.182-0.559 0.282-1.154 0.282-1.773 0-3.175-2.585-5.758-5.759-5.758-3.176 0-5.759 2.583-5.759 5.759 0 0.121 0.118-0.011 0.237-0.018l2.387 1.796c-0.075 0.004-0.148 0.012-0.223 0.012z m3.779-3.591c-0.109-0.432-0.32-0.849-0.768-1.171-0.307-0.217-0.557-1.173-0.37-1.483 0.111-0.185 0.401-0.347 0.614-0.449 0.373 0.704 0.587 1.506 0.587 2.357 0 0.254-0.025 0.502-0.061 0.746z"/>
</svg>